<?xml version="1.0" encoding="UTF-8"?>
<svg width="38px" height="29px" viewBox="0 0 38 29" version="1.1" xmlns="http://www.w3.org/2000/svg" xmlns:xlink="http://www.w3.org/1999/xlink">
    <!-- Generator: Sketch 52.3 (67297) - http://www.bohemiancoding.com/sketch -->
    <title>Fill 186</title>
    <desc>Created with Sketch.</desc>
    <g id="Page-1" stroke="none" stroke-width="1" fill="none" fill-rule="evenodd">
        <g id="Artboard" transform="translate(-86.753930, -181.123713)" fill="#FFFFFE">
            <g id="Group" transform="translate(71.985774, 130.000000)">
                <path d="M49.7281557,75.223904 C49.7281557,75.4600924 49.6827796,75.6834824 49.6176242,75.8964011 L39.2567474,64.7524957 L49.7281557,56.608067 L49.7281557,75.223904 L49.7281557,75.223904 Z M18.9608312,77.4880551 L29.4601632,66.2999371 L33.4392984,69.3075583 L37.246237,66.2813213 L47.9177656,77.4880551 C47.7513865,77.5264503 19.1272102,77.5264503 18.9608312,77.4880551 L18.9608312,77.4880551 Z M17.150441,75.223904 L17.150441,56.608067 L27.6218493,64.7524957 L17.2609726,75.8964011 C17.1958171,75.6834824 17.150441,75.4600924 17.150441,75.223904 L17.150441,75.223904 Z M48.5646659,54.2810874 L33.4392984,65.9159855 L18.3139308,54.2810874 L48.5646659,54.2810874 L48.5646659,54.2810874 Z M47.4011761,51.9541078 L19.4774207,51.9541078 C16.9072717,51.9541078 14.8234614,54.037918 14.8234614,56.608067 L14.8234614,75.223904 C14.8234614,77.7940529 16.9072717,79.8778632 19.4774207,79.8778632 L47.4011761,79.8778632 C49.9713251,79.8778632 52.0551353,77.7940529 52.0551353,75.223904 L52.0551353,56.608067 C52.0551353,54.037918 49.9713251,51.9541078 47.4011761,51.9541078 L47.4011761,51.9541078 Z" id="Fill-186"></path>
            </g>
        </g>
    </g>
</svg>