<?xml version="1.0" encoding="utf-8"?>
<!-- Generator: Adobe Illustrator 16.0.0, SVG Export Plug-In . SVG Version: 6.00 Build 0)  -->
<!DOCTYPE svg PUBLIC "-//W3C//DTD SVG 1.1//EN" "http://www.w3.org/Graphics/SVG/1.1/DTD/svg11.dtd">
<svg version="1.1" id="Layer_1" xmlns="http://www.w3.org/2000/svg" xmlns:xlink="http://www.w3.org/1999/xlink" x="0px" y="0px"
	 width="66px" height="66px" viewBox="0 0 66 66" enable-background="new 0 0 66 66" xml:space="preserve">
<title>Group</title>
<desc>Created with Sketch.</desc>
<g id="Group" transform="translate(3.000000, 3.000000)">
	<path id="Fill-26" fill="none" stroke="#00205A" stroke-miterlimit="10" d="M-1.03,30C-1.03,12.867,12.862-1.03,30-1.03
		c17.139,0,31.03,13.897,31.03,31.03S47.139,61.03,30,61.03C12.862,61.03-1.03,47.133-1.03,30z M30,62C12.327,62-2,47.673-2,30
		C-2,12.327,12.327-2,30-2c17.673,0,32,14.327,32,32C62,47.673,47.673,62,30,62z"/>
	<path id="Line" fill="none" stroke="#00205A" stroke-miterlimit="10" d="M30,11.576v32.692"/>
	<path id="Path-2-Copy" fill="none" stroke="#00205A" stroke-miterlimit="10" d="M15.455,30l13.828,14.761
		c0.366,0.391,0.979,0.411,1.371,0.044c0.016-0.014,0.03-0.028,0.044-0.043L44.546,30"/>
</g>
</svg>
