<?xml version="1.0" encoding="UTF-8"?>
<svg width="17px" height="17px" viewBox="0 0 17 17" version="1.1" xmlns="http://www.w3.org/2000/svg" xmlns:xlink="http://www.w3.org/1999/xlink">
    <!-- Generator: Sketch 52.5 (67469) - http://www.bohemiancoding.com/sketch -->
    <title>Fill 8</title>
    <desc>Created with Sketch.</desc>
    <g id="Symbols" stroke="none" stroke-width="1" fill="none" fill-rule="evenodd">
        <g id="Enlarge-button" fill="#454545">
            <path d="M16.8326562,0.159375 C16.7359687,0.06375 16.6020938,0 16.453875,0 L11.6875,0 C11.3937188,0 11.15625,0.2390625 11.15625,0.53125 C11.15625,0.8234375 11.3937188,1.0625 11.6875,1.0625 L15.2091563,1.0625 L9.4721875,6.8 L10.223375,7.5490625 L15.9539688,1.816875 L15.9375,5.3125 C15.9375,5.6046875 16.1749687,5.84375 16.46875,5.84375 C16.7625312,5.84375 17,5.6046875 17,5.3125 L17,0.53125 C17,0.371875 16.9351875,0.244375 16.8326562,0.159375 L16.8326562,0.159375 Z M6.776625,9.4509375 L1.04603125,15.183125 L1.0625,11.6875 C1.0625,11.3953125 0.82503125,11.15625 0.53125,11.15625 C0.23746875,11.15625 0,11.3953125 0,11.6875 L0,16.46875 C0,16.628125 0.0648125,16.755625 0.16734375,16.840625 C0.26403125,16.93625 0.39790625,17 0.546125,17 L5.3125,17 C5.60628125,17 5.84375,16.7609375 5.84375,16.46875 C5.84375,16.1765625 5.60628125,15.9375 5.3125,15.9375 L1.79084375,15.9375 L7.5278125,10.2 L6.776625,9.4509375 L6.776625,9.4509375 Z" id="Fill-8"></path>
        </g>
    </g>
</svg>