<?xml version="1.0" encoding="utf-8"?>
<!-- Generator: Adobe Illustrator 16.0.0, SVG Export Plug-In . SVG Version: 6.00 Build 0)  -->
<!DOCTYPE svg PUBLIC "-//W3C//DTD SVG 1.1//EN" "http://www.w3.org/Graphics/SVG/1.1/DTD/svg11.dtd">
<svg version="1.1" id="Layer_1" xmlns="http://www.w3.org/2000/svg" xmlns:xlink="http://www.w3.org/1999/xlink" x="0px" y="0px"
	 width="38px" height="29px" viewBox="0 0 38 29" enable-background="new 0 0 38 29" xml:space="preserve">
<title>Fill 186</title>
<desc>Created with Sketch.</desc>
<g id="Page-1">
	<g id="Artboard" transform="translate(-86.753930, -181.123713)">
		<g id="Group" transform="translate(71.985774, 130.000000)">
			<path id="Fill-186" fill="#FFFFFE" stroke="#FFFFFF" stroke-miterlimit="10" d="M50.057,74.93c0,0.236-0.046,0.461-0.11,0.674
				L39.586,64.461l10.472-8.145V74.93L50.057,74.93z M19.291,77.196l10.498-11.188l3.979,3.007l3.808-3.024l10.671,11.206
				C48.081,77.233,19.457,77.233,19.291,77.196L19.291,77.196z M17.48,74.93V56.316l10.471,8.145L17.589,75.604
				C17.525,75.391,17.48,75.167,17.48,74.93L17.48,74.93z M48.894,53.989L33.768,65.624L18.643,53.989H48.894L48.894,53.989z
				 M47.73,51.662H19.806c-2.57,0-4.654,2.083-4.654,4.654V74.93c0,2.57,2.084,4.654,4.654,4.654H47.73
				c2.57,0,4.654-2.084,4.654-4.654V56.316C52.384,53.746,50.3,51.662,47.73,51.662L47.73,51.662z"/>
		</g>
	</g>
</g>
</svg>
