<?xml version="1.0" encoding="utf-8"?>
<!-- Generator: Adobe Illustrator 22.1.0, SVG Export Plug-In . SVG Version: 6.00 Build 0)  -->
<svg version="1.1" id="Layer_1" xmlns="http://www.w3.org/2000/svg" xmlns:xlink="http://www.w3.org/1999/xlink" x="0px" y="0px"
	 viewBox="0 0 595.3 595.3" style="enable-background:new 0 0 595.3 595.3;" xml:space="preserve">
<style type="text/css">
	.st0{fill:#474747;}
</style>
<g>
	<path class="st0" d="M408.6,258.6c0-2.6,0-5.1-0.2-7.6c11-8.2,20.5-18.4,28-30.1c-10.1,4.5-20.9,7.6-32.2,8.8
		c11.6-7.1,20.5-18.5,24.7-32.2c-10.9,6.6-22.9,11.3-35.6,13.7c-10.2-11.6-24.8-19.1-41-19.3c-31-0.5-56.1,25.7-56.1,58.5
		c0,4.7,0.5,9.2,1.5,13.6c-46.7-3-88-27.3-115.7-63.9c-4.8,8.8-7.6,19-7.6,30c0,20.8,9.9,39.3,25,50.2c-9.2-0.4-17.9-3.2-25.4-7.8
		v0.8c0,29.1,19.4,53.4,45,59.1c-4.7,1.3-9.7,2-14.8,2c-3.6,0-7.1-0.4-10.6-1.2c7.1,23.8,27.9,41.2,52.4,41.8
		c-19.2,15.9-43.4,25.5-69.7,25.4c-4.5,0-9-0.3-13.4-0.9c24.9,17,54.4,27,86.1,27C352.2,426.4,408.6,336.5,408.6,258.6L408.6,258.6z
		"/>
	<path class="st0" d="M553.8,309.1C553.8,168.7,440,55,299.7,55S45.6,168.7,45.6,309.1c0,140.3,113.8,254.1,254.1,254.1
		C440,563.1,553.8,449.4,553.8,309.1z M68.7,309.1c0-127.6,103.4-231,231-231s231,103.4,231,231s-103.4,231-231,231
		S68.7,436.6,68.7,309.1L68.7,309.1z"/>
</g>
<path class="st0" d="M299.7,54.2c-141.4,0-256,114.6-256,256s114.6,256,256,256s256-114.6,256-256S441.1,54.2,299.7,54.2z
	 M299.7,526.2c-119.3,0-216-96.7-216-216s96.7-216,216-216s216,96.7,216,216S419,526.2,299.7,526.2z"/>
</svg>
