<?xml version="1.0" encoding="utf-8"?>
<!-- Generator: Adobe Illustrator 22.1.0, SVG Export Plug-In . SVG Version: 6.00 Build 0)  -->
<svg version="1.1" id="Capa_1" xmlns="http://www.w3.org/2000/svg" xmlns:xlink="http://www.w3.org/1999/xlink" x="0px" y="0px"
	 viewBox="0 0 612 612" style="enable-background:new 0 0 612 612;" xml:space="preserve">
<style type="text/css">
	.st0{stroke:#000000;stroke-width:17;stroke-miterlimit:10;}
</style>
<path d="M427.5,249.9c0-2.8-0.1-5.7-0.2-8.5c12.2-9.1,22.8-20.4,31.1-33.5c-11.2,5-23.2,8.4-35.8,9.8c12.9-7.9,22.8-20.6,27.4-35.8
	c-12.1,7.3-25.4,12.5-39.6,15.3c-11.4-12.9-27.6-21.2-45.5-21.5c-34.4-0.6-62.3,28.5-62.3,65c0,5.2,0.5,10.2,1.6,15.1
	c-51.8-3.3-97.8-30.3-128.5-71c-5.4,9.7-8.4,21.1-8.4,33.3c0,23.1,11,43.6,27.7,55.7c-10.2-0.5-19.8-3.6-28.2-8.6c0,0.3,0,0.6,0,0.8
	c0,32.3,21.5,59.3,50,65.6c-5.2,1.5-10.7,2.3-16.4,2.2c-4,0-7.9-0.5-11.7-1.3c7.9,26.4,31,45.8,58.2,46.4
	c-21.3,17.7-48.2,28.3-77.4,28.2c-5,0-10-0.3-14.9-0.9c27.6,18.9,60.4,30,95.6,30C364.8,436.3,427.5,336.5,427.5,249.9z"/>
<path class="st0" d="M604,306.5C604,142.2,470.8,9,306.5,9C142.2,9,9,142.2,9,306.5C9,470.8,142.2,604,306.5,604
	C470.8,604,604,470.8,604,306.5z M36,306.5C36,157.1,157.1,36,306.5,36S577,157.1,577,306.5S455.9,577,306.5,577S36,455.9,36,306.5z
	"/>
</svg>
